<?xml version="1.0" encoding="iso-8859-1"?>
<!-- Generator: Adobe Illustrator 18.1.1, SVG Export Plug-In . SVG Version: 6.00 Build 0)  -->
<svg version="1.1" id="Capa_1" xmlns="http://www.w3.org/2000/svg" xmlns:xlink="http://www.w3.org/1999/xlink" x="0px" y="0px"
	 viewBox="0 0 442 442" style="enable-background:new 0 0 442 442;" xml:space="preserve">
<g>
	<g>
		<path d="M59.5,332.917H204v68H96.333c-9.35,0-17,7.65-17,17s7.65,17,17,17h246.5c9.35,0,17-7.65,17-17s-7.65-17-17-17H238v-68
			h144.5c32.583,0,59.5-26.917,59.5-59.5V67.15c0-32.583-26.917-60.067-59.5-60.067h-323C26.917,7.083,0,34.567,0,67.15v206.267
			C0,306,26.917,332.917,59.5,332.917z M408,273.983c0,13.883-11.333,24.933-24.933,24.933H58.933
			C45.05,298.917,34,287.583,34,273.983V66.017c0-13.883,11.333-24.933,24.933-24.933h323.85c13.883,0,24.933,11.333,24.933,24.933
			v207.967H408z"/>
	</g>
</g>
<g>
</g>
<g>
</g>
<g>
</g>
<g>
</g>
<g>
</g>
<g>
</g>
<g>
</g>
<g>
</g>
<g>
</g>
<g>
</g>
<g>
</g>
<g>
</g>
<g>
</g>
<g>
</g>
<g>
</g>
</svg>
